<svg version="1.1" xmlns="http://www.w3.org/2000/svg" x="0" y="0" viewBox="0 0 220 220" xml:space="preserve">
    <style>.st1{fill:#42bee0}.st2{fill:#ffe500}</style>
    <path id="White_Fill" d="M166.2 166.2A79.9 79.9 0 0153.8 53.8a80 80 0 01112.4 112.4z" fill="#fff"/>
    <path
        d="M217.5 103h-18.7a84 84 0 00-83.9-81.9A83.5 83.5 0 0050.8 51 83.7 83.7 0 0022 103H11.8c-1.1 0-2 .9-2 2s.9 2 2 2h9.7l-.4 6H2.8c-1.1 0-2 .9-2 2s.9 2 2 2h18.3a84 84 0 0083.9 81.9 83.5 83.5 0 0064.1-29.9 84.1 84.1 0 0028.9-52h10.6c1.1 0 2-.9 2-2s-.9-2-2-2h-10.1l.4-6h18.7c1.1 0 2-.9 2-2s-1-2-2.1-2zm-51.3 63.2A79.9 79.9 0 0153.8 53.8a80 80 0 01112.4 112.4z"/>
    <g id="XMLID_2_">
        <path class="st1" d="M194.9 105c0 2.7-.1 5.4-.4 8h-5.6A84 84 0 0071.1 38.3 80 80 0 01194.9 105zM188.8 117h5.1a79.6 79.6 0 01-12.3 31.9c4.4-9.8 7-20.6 7.2-31.9z"/>
    </g>
    <g id="XMLID_1_">
        <path class="st2" d="M115 188.9c12.1 0 23.5-2.6 33.9-7.2A80 80 0 0125.5 107h5.7a84 84 0 0083.8 81.9zM38.2 71.1a83 83 0 00-7.1 31.9H26c1.7-11.6 6-22.4 12.2-31.9z"/>
    </g>
    <path
        d="M90.5 53.4h11.6v67.3a5 5 0 01-1.1 3.4c-.7.8-1.9 1.2-3.6 1.2-1.7 0-2.9-.4-3.6-1.2a5 5 0 01-1.1-3.4V66.2h-.2l-8.8 13v1.5a7 7 0 01-1 3.8c-.6 1.1-1.9 1.7-3.7 1.7-1.7 0-2.9-.6-3.6-1.7a7 7 0 01-1.1-3.8v-1.5l-8.8-13h-.2v54.5a5 5 0 01-1.1 3.4c-.7.8-1.9 1.2-3.6 1.2-1.7 0-2.9-.4-3.6-1.2a5 5 0 01-1.1-3.4V53.4H68l11.3 16.3 11.2-16.3zM146.8 162.7a8 8 0 01-3.8-.7c-.9-.5-1.5-1.6-1.8-3.2h-.2c-.3 1.7-.9 2.7-1.8 3.2a8 8 0 01-3.8.7h-6.9l-2-.1-1.4-.5c-.4-.2-.8-.6-1.1-1l-1.1-1.7-3.2-5.6c-.6-1-1-1.7-1.1-2.2a13 13 0 01-.2-2.5V95.5a5 5 0 011.1-3.4c.7-.8 1.9-1.2 3.6-1.2 1.7 0 2.8.4 3.6 1.2a5 5 0 011.1 3.4v53.6l2.5 4.4h4l2.5-4.4V120a7 7 0 011.1-3.8c.7-1.1 1.9-1.7 3.6-1.7 1.7 0 2.8.6 3.6 1.7a7 7 0 011.1 3.8v29.1l2.5 4.4h4l2.5-4.4V95.5a5 5 0 011.1-3.4c.7-.8 1.9-1.2 3.6-1.2 1.7 0 2.9.4 3.6 1.2a5 5 0 011.1 3.4v53.6l-.2 2.5c-.1.5-.5 1.2-1.1 2.2l-3.2 5.6-1.1 1.7c-.3.4-.7.8-1.1 1l-1.4.5-2 .1h-7.7z"/>
</svg>
