{
    "asset" : {
        "generator" : "Khronos glTF Blender I/O v1.7.33",
        "version" : "2.0"
    },
    "scene" : 0,
    "scenes" : [
        {
            "name" : "Scene",
            "nodes" : [
                0,
                1,
                2
            ]
        }
    ],
    "nodes" : [
        {
            "mesh" : 0,
            "name" : "Cube.002",
            "scale" : [
                1,
                0.10000000149011612,
                1
            ],
            "translation" : [
                0,
                -0.10000000149011612,
                0
            ]
        },
        {
            "mesh" : 1,
            "name" : "Cube",
            "rotation" : [
                0,
                0.9128439426422119,
                0,
                0.4083086848258972
            ],
            "scale" : [
                0.14101766049861908,
                0.0690416470170021,
                0.08300995081663132
            ],
            "translation" : [
                0.897351861000061,
                0.15277335047721863,
                0.8216171860694885
            ]
        },
        {
            "mesh" : 2,
            "name" : "Cube.001",
            "rotation" : [
                0,
                0.9128439426422119,
                0,
                0.4083086848258972
            ],
            "scale" : [
                0.6988551616668701,
                -0.04089543968439102,
                0.24727226793766022
            ],
            "translation" : [
                0.02366676554083824,
                0.07560528814792633,
                -0.038006141781806946
            ]
        }
    ],
    "materials" : [
        {
            "doubleSided" : true,
            "name" : "Material.105",
            "pbrMetallicRoughness" : {
                "baseColorFactor" : [
                    0.32487058639526367,
                    0.0708412453532219,
                    0,
                    1
                ],
                "metallicFactor" : 0,
                "roughnessFactor" : 0.5
            }
        },
        {
            "doubleSided" : true,
            "name" : "Material.106",
            "pbrMetallicRoughness" : {
                "baseColorTexture" : {
                    "index" : 0
                },
                "metallicFactor" : 0,
                "roughnessFactor" : 0.5
            }
        },
        {
            "doubleSided" : true,
            "name" : "Material.110",
            "pbrMetallicRoughness" : {
                "baseColorFactor" : [
                    0.1464938521385193,
                    0.13288843631744385,
                    0.11513689905405045,
                    1
                ],
                "metallicFactor" : 0
            }
        },
        {
            "doubleSided" : true,
            "name" : "Material.111",
            "pbrMetallicRoughness" : {
                "baseColorFactor" : [
                    0.09420141577720642,
                    0.05098491162061691,
                    0.04012423753738403,
                    1
                ],
                "metallicFactor" : 0
            }
        },
        {
            "doubleSided" : true,
            "name" : "Material.112",
            "pbrMetallicRoughness" : {
                "baseColorFactor" : [
                    0.44325047731399536,
                    0.40345269441604614,
                    0.28305327892303467,
                    1
                ],
                "metallicFactor" : 0
            }
        }
    ],
    "meshes" : [
        {
            "name" : "Cube.117",
            "primitives" : [
                {
                    "attributes" : {
                        "POSITION" : 0,
                        "NORMAL" : 1,
                        "TEXCOORD_0" : 2
                    },
                    "indices" : 3,
                    "material" : 0
                },
                {
                    "attributes" : {
                        "POSITION" : 4,
                        "NORMAL" : 5,
                        "TEXCOORD_0" : 6
                    },
                    "indices" : 7,
                    "material" : 1
                }
            ]
        },
        {
            "name" : "Cube.120",
            "primitives" : [
                {
                    "attributes" : {
                        "POSITION" : 8,
                        "NORMAL" : 9,
                        "TEXCOORD_0" : 10
                    },
                    "indices" : 11,
                    "material" : 2
                },
                {
                    "attributes" : {
                        "POSITION" : 12,
                        "NORMAL" : 13,
                        "TEXCOORD_0" : 14
                    },
                    "indices" : 15,
                    "material" : 3
                }
            ]
        },
        {
            "name" : "Cube.121",
            "primitives" : [
                {
                    "attributes" : {
                        "POSITION" : 16,
                        "NORMAL" : 17,
                        "TEXCOORD_0" : 18
                    },
                    "indices" : 19,
                    "material" : 4
                }
            ]
        }
    ],
    "textures" : [
        {
            "sampler" : 0,
            "source" : 0
        }
    ],
    "images" : [
        {
            "bufferView" : 8,
            "mimeType" : "image/jpeg",
            "name" : "Cartoon_green_texture_grass"
        }
    ],
    "accessors" : [
        {
            "bufferView" : 0,
            "componentType" : 5126,
            "count" : 62,
            "max" : [
                1,
                1,
                1
            ],
            "min" : [
                -1,
                -1,
                -1
            ],
            "type" : "VEC3"
        },
        {
            "bufferView" : 1,
            "componentType" : 5126,
            "count" : 62,
            "type" : "VEC3"
        },
        {
            "bufferView" : 2,
            "componentType" : 5126,
            "count" : 62,
            "type" : "VEC2"
        },
        {
            "bufferView" : 3,
            "componentType" : 5123,
            "count" : 126,
            "type" : "SCALAR"
        },
        {
            "bufferView" : 4,
            "componentType" : 5126,
            "count" : 26,
            "max" : [
                1,
                1,
                1
            ],
            "min" : [
                -1,
                1,
                -1
            ],
            "type" : "VEC3"
        },
        {
            "bufferView" : 5,
            "componentType" : 5126,
            "count" : 26,
            "type" : "VEC3"
        },
        {
            "bufferView" : 6,
            "componentType" : 5126,
            "count" : 26,
            "type" : "VEC2"
        },
        {
            "bufferView" : 7,
            "componentType" : 5123,
            "count" : 54,
            "type" : "SCALAR"
        },
        {
            "bufferView" : 9,
            "componentType" : 5126,
            "count" : 1768,
            "max" : [
                13.0469388961792,
                13.07203483581543,
                1.192161202430725
            ],
            "min" : [
                4.1355061531066895,
                -1.040297031402588,
                -1.1383755207061768
            ],
            "type" : "VEC3"
        },
        {
            "bufferView" : 10,
            "componentType" : 5126,
            "count" : 1768,
            "type" : "VEC3"
        },
        {
            "bufferView" : 11,
            "componentType" : 5126,
            "count" : 1768,
            "type" : "VEC2"
        },
        {
            "bufferView" : 12,
            "componentType" : 5123,
            "count" : 2772,
            "type" : "SCALAR"
        },
        {
            "bufferView" : 13,
            "componentType" : 5126,
            "count" : 326,
            "max" : [
                13.03305435180664,
                13.108977317810059,
                1.172316551208496
            ],
            "min" : [
                4.285345077514648,
                -1.020308017730713,
                -1.0925546884536743
            ],
            "type" : "VEC3"
        },
        {
            "bufferView" : 14,
            "componentType" : 5126,
            "count" : 326,
            "type" : "VEC3"
        },
        {
            "bufferView" : 15,
            "componentType" : 5126,
            "count" : 326,
            "type" : "VEC2"
        },
        {
            "bufferView" : 16,
            "componentType" : 5123,
            "count" : 564,
            "type" : "SCALAR"
        },
        {
            "bufferView" : 17,
            "componentType" : 5126,
            "count" : 24,
            "max" : [
                1,
                1,
                1
            ],
            "min" : [
                -1,
                -1,
                -1
            ],
            "type" : "VEC3"
        },
        {
            "bufferView" : 18,
            "componentType" : 5126,
            "count" : 24,
            "type" : "VEC3"
        },
        {
            "bufferView" : 19,
            "componentType" : 5126,
            "count" : 24,
            "type" : "VEC2"
        },
        {
            "bufferView" : 20,
            "componentType" : 5123,
            "count" : 36,
            "type" : "SCALAR"
        }
    ],
    "bufferViews" : [
        {
            "buffer" : 0,
            "byteLength" : 744,
            "byteOffset" : 0
        },
        {
            "buffer" : 0,
            "byteLength" : 744,
            "byteOffset" : 744
        },
        {
            "buffer" : 0,
            "byteLength" : 496,
            "byteOffset" : 1488
        },
        {
            "buffer" : 0,
            "byteLength" : 252,
            "byteOffset" : 1984
        },
        {
            "buffer" : 0,
            "byteLength" : 312,
            "byteOffset" : 2236
        },
        {
            "buffer" : 0,
            "byteLength" : 312,
            "byteOffset" : 2548
        },
        {
            "buffer" : 0,
            "byteLength" : 208,
            "byteOffset" : 2860
        },
        {
            "buffer" : 0,
            "byteLength" : 108,
            "byteOffset" : 3068
        },
        {
            "buffer" : 0,
            "byteLength" : 2922962,
            "byteOffset" : 3176
        },
        {
            "buffer" : 0,
            "byteLength" : 21216,
            "byteOffset" : 2926140
        },
        {
            "buffer" : 0,
            "byteLength" : 21216,
            "byteOffset" : 2947356
        },
        {
            "buffer" : 0,
            "byteLength" : 14144,
            "byteOffset" : 2968572
        },
        {
            "buffer" : 0,
            "byteLength" : 5544,
            "byteOffset" : 2982716
        },
        {
            "buffer" : 0,
            "byteLength" : 3912,
            "byteOffset" : 2988260
        },
        {
            "buffer" : 0,
            "byteLength" : 3912,
            "byteOffset" : 2992172
        },
        {
            "buffer" : 0,
            "byteLength" : 2608,
            "byteOffset" : 2996084
        },
        {
            "buffer" : 0,
            "byteLength" : 1128,
            "byteOffset" : 2998692
        },
        {
            "buffer" : 0,
            "byteLength" : 288,
            "byteOffset" : 2999820
        },
        {
            "buffer" : 0,
            "byteLength" : 288,
            "byteOffset" : 3000108
        },
        {
            "buffer" : 0,
            "byteLength" : 192,
            "byteOffset" : 3000396
        },
        {
            "buffer" : 0,
            "byteLength" : 72,
            "byteOffset" : 3000588
        }
    ],
    "samplers" : [
        {
            "magFilter" : 9729,
            "minFilter" : 9987
        }
    ],
    "buffers" : [
        {
            "byteLength" : 3000660,
            "uri" : "data:application/octet-stream;base64,"
        }
    ]
}
