{
	"asset":{
		"generator":"Khronos glTF Blender I/O v3.5.30",
		"version":"2.0"
	},
	"scene":0,
	"scenes":[
		{
			"name":"Scene",
			"nodes":[
				0,
				1,
				2,
				3,
				4,
				5
			]
		}
	],
	"nodes":[
		{
			"mesh":0,
			"name":"Cube",
			"scale":[
				2.475367546081543,
				0.19464969635009766,
				2.475367546081543
			]
		},
		{
			"mesh":1,
			"name":"\u5713\u67f1\u9ad4",
			"scale":[
				0.7770000100135803,
				0.0949999988079071,
				0.7770000100135803
			],
			"translation":[
				0.0002680000034160912,
				0.2944900095462799,
				0.026024000719189644
			]
		},
		{
			"mesh":2,
			"name":"\u5713\u67f1\u9ad4.001",
			"scale":[
				0.6809999942779541,
				0.08399999886751175,
				0.6809999942779541
			],
			"translation":[
				0.0002680000034160912,
				0.4328100085258484,
				0.026024000719189644
			]
		},
		{
			"mesh":3,
			"name":"\u5713\u67f1\u9ad4.002",
			"scale":[
				0.5960000157356262,
				1.6469999551773071,
				0.5960000157356262
			],
			"translation":[
				0.0002680000034160912,
				1.9357999563217163,
				0
			]
		},
		{
			"mesh":4,
			"name":"\u5713\u67f1\u9ad4.003",
			"rotation":[
				-1,
				0,
				0,
				1.6292068494294654e-07
			],
			"scale":[
				0.7770000100135803,
				0.0949999988079071,
				0.7770000100135803
			],
			"translation":[
				0.0002680000034160912,
				3.685499906539917,
				0
			]
		},
		{
			"mesh":5,
			"name":"\u5713\u67f1\u9ad4.004",
			"rotation":[
				-1,
				0,
				0,
				1.6292068494294654e-07
			],
			"scale":[
				0.6809999942779541,
				0.08399999886751175,
				0.6809999942779541
			],
			"translation":[
				0.0002680000034160912,
				3.5471999645233154,
				0.026024000719189644
			]
		}
	],
	"materials":[
		{
			"doubleSided":true,
			"name":"Material.009",
			"normalTexture":{
				"index":0,
				"scale":0.4000000059604645
			},
			"pbrMetallicRoughness":{
				"baseColorTexture":{
					"index":1
				},
				"metallicFactor":0,
				"roughnessFactor":0.4000000059604645
			}
		},
		{
			"doubleSided":true,
			"name":"Material.010",
			"pbrMetallicRoughness":{
				"baseColorFactor":[
					0.2774032652378082,
					0.2423926144838333,
					0.16216783225536346,
					1
				],
				"metallicFactor":0,
				"roughnessFactor":0.5
			}
		},
		{
			"doubleSided":true,
			"name":"\u6750\u8cea.030",
			"pbrMetallicRoughness":{
				"baseColorFactor":[
					0.161836639046669,
					0.1658511757850647,
					0.16461174190044403,
					1
				],
				"metallicFactor":0,
				"roughnessFactor":0.5
			}
		},
		{
			"doubleSided":true,
			"name":"\u6750\u8cea.031",
			"pbrMetallicRoughness":{
				"baseColorFactor":[
					0.16599999368190765,
					0.16318729519844055,
					0.16201600432395935,
					1
				],
				"metallicFactor":0,
				"roughnessFactor":0.5
			}
		},
		{
			"doubleSided":true,
			"name":"\u6750\u8cea.032",
			"pbrMetallicRoughness":{
				"baseColorFactor":[
					0.16599999368190765,
					0.16318729519844055,
					0.16201600432395935,
					1
				],
				"metallicFactor":0,
				"roughnessFactor":0.5
			}
		},
		{
			"doubleSided":true,
			"name":"\u6750\u8cea.033",
			"pbrMetallicRoughness":{
				"baseColorFactor":[
					0.16201600432395935,
					0.16599999368190765,
					0.1647808849811554,
					1
				],
				"metallicFactor":0,
				"roughnessFactor":0.5
			}
		},
		{
			"doubleSided":true,
			"name":"\u6750\u8cea.034",
			"pbrMetallicRoughness":{
				"baseColorFactor":[
					0.16201600432395935,
					0.16599999368190765,
					0.1647808849811554,
					1
				],
				"metallicFactor":0,
				"roughnessFactor":0.5
			}
		}
	],
	"meshes":[
		{
			"name":"Cube.005",
			"primitives":[
				{
					"attributes":{
						"POSITION":0,
						"TEXCOORD_0":1,
						"NORMAL":2
					},
					"indices":3,
					"material":0
				},
				{
					"attributes":{
						"POSITION":4,
						"TEXCOORD_0":5,
						"NORMAL":6
					},
					"indices":7,
					"material":1
				}
			]
		},
		{
			"name":"\u5713\u67f1\u9ad4.019",
			"primitives":[
				{
					"attributes":{
						"POSITION":8,
						"TEXCOORD_0":9,
						"NORMAL":10
					},
					"indices":11,
					"material":2
				}
			]
		},
		{
			"name":"\u5713\u67f1\u9ad4.020",
			"primitives":[
				{
					"attributes":{
						"POSITION":12,
						"TEXCOORD_0":13,
						"NORMAL":14
					},
					"indices":11,
					"material":3
				}
			]
		},
		{
			"name":"\u5713\u67f1\u9ad4.021",
			"primitives":[
				{
					"attributes":{
						"POSITION":15,
						"TEXCOORD_0":16,
						"NORMAL":17
					},
					"indices":18,
					"material":4
				}
			]
		},
		{
			"name":"\u5713\u67f1\u9ad4.022",
			"primitives":[
				{
					"attributes":{
						"POSITION":19,
						"TEXCOORD_0":20,
						"NORMAL":21
					},
					"indices":11,
					"material":5
				}
			]
		},
		{
			"name":"\u5713\u67f1\u9ad4.023",
			"primitives":[
				{
					"attributes":{
						"POSITION":22,
						"TEXCOORD_0":23,
						"NORMAL":24
					},
					"indices":11,
					"material":6
				}
			]
		}
	],
	"textures":[
		{
			"sampler":0,
			"source":0
		},
		{
			"sampler":0,
			"source":1
		}
	],
	"images":[
		{
			"bufferView":4,
			"mimeType":"image/png",
			"name":"Untitled"
		},
		{
			"bufferView":5,
			"mimeType":"image/png",
			"name":"tile_Base_color"
		}
	],
	"accessors":[
		{
			"bufferView":0,
			"componentType":5126,
			"count":8,
			"max":[
				1,
				1,
				1
			],
			"min":[
				-1,
				-1,
				-1
			],
			"type":"VEC3"
		},
		{
			"bufferView":1,
			"componentType":5126,
			"count":8,
			"type":"VEC2"
		},
		{
			"bufferView":2,
			"componentType":5126,
			"count":8,
			"type":"VEC3"
		},
		{
			"bufferView":3,
			"componentType":5123,
			"count":12,
			"type":"SCALAR"
		},
		{
			"bufferView":6,
			"componentType":5126,
			"count":16,
			"max":[
				1,
				1,
				1
			],
			"min":[
				-1,
				-1,
				-1
			],
			"type":"VEC3"
		},
		{
			"bufferView":7,
			"componentType":5126,
			"count":16,
			"type":"VEC2"
		},
		{
			"bufferView":8,
			"componentType":5126,
			"count":16,
			"type":"VEC3"
		},
		{
			"bufferView":9,
			"componentType":5123,
			"count":24,
			"type":"SCALAR"
		},
		{
			"bufferView":10,
			"componentType":5126,
			"count":130,
			"max":[
				1,
				1,
				1
			],
			"min":[
				-1,
				-1,
				-1
			],
			"type":"VEC3"
		},
		{
			"bufferView":11,
			"componentType":5126,
			"count":130,
			"type":"VEC2"
		},
		{
			"bufferView":12,
			"componentType":5126,
			"count":130,
			"type":"VEC3"
		},
		{
			"bufferView":13,
			"componentType":5123,
			"count":372,
			"type":"SCALAR"
		},
		{
			"bufferView":14,
			"componentType":5126,
			"count":130,
			"max":[
				1,
				1,
				1
			],
			"min":[
				-1,
				-1,
				-1
			],
			"type":"VEC3"
		},
		{
			"bufferView":15,
			"componentType":5126,
			"count":130,
			"type":"VEC2"
		},
		{
			"bufferView":16,
			"componentType":5126,
			"count":130,
			"type":"VEC3"
		},
		{
			"bufferView":17,
			"componentType":5126,
			"count":186,
			"max":[
				1.064693808555603,
				1,
				1.0624415874481201
			],
			"min":[
				-1.0675863027572632,
				-1,
				-1.06727933883667
			],
			"type":"VEC3"
		},
		{
			"bufferView":18,
			"componentType":5126,
			"count":186,
			"type":"VEC2"
		},
		{
			"bufferView":19,
			"componentType":5126,
			"count":186,
			"type":"VEC3"
		},
		{
			"bufferView":20,
			"componentType":5123,
			"count":816,
			"type":"SCALAR"
		},
		{
			"bufferView":21,
			"componentType":5126,
			"count":130,
			"max":[
				1,
				1,
				1
			],
			"min":[
				-1,
				-1,
				-1
			],
			"type":"VEC3"
		},
		{
			"bufferView":22,
			"componentType":5126,
			"count":130,
			"type":"VEC2"
		},
		{
			"bufferView":23,
			"componentType":5126,
			"count":130,
			"type":"VEC3"
		},
		{
			"bufferView":24,
			"componentType":5126,
			"count":130,
			"max":[
				1,
				1,
				1
			],
			"min":[
				-1,
				-1,
				-1
			],
			"type":"VEC3"
		},
		{
			"bufferView":25,
			"componentType":5126,
			"count":130,
			"type":"VEC2"
		},
		{
			"bufferView":26,
			"componentType":5126,
			"count":130,
			"type":"VEC3"
		}
	],
	"bufferViews":[
		{
			"buffer":0,
			"byteLength":96,
			"byteOffset":0,
			"target":34962
		},
		{
			"buffer":0,
			"byteLength":64,
			"byteOffset":96,
			"target":34962
		},
		{
			"buffer":0,
			"byteLength":96,
			"byteOffset":160,
			"target":34962
		},
		{
			"buffer":0,
			"byteLength":24,
			"byteOffset":256,
			"target":34963
		},
		{
			"buffer":0,
			"byteLength":452808,
			"byteOffset":280
		},
		{
			"buffer":0,
			"byteLength":72402,
			"byteOffset":453088
		},
		{
			"buffer":0,
			"byteLength":192,
			"byteOffset":525492,
			"target":34962
		},
		{
			"buffer":0,
			"byteLength":128,
			"byteOffset":525684,
			"target":34962
		},
		{
			"buffer":0,
			"byteLength":192,
			"byteOffset":525812,
			"target":34962
		},
		{
			"buffer":0,
			"byteLength":48,
			"byteOffset":526004,
			"target":34963
		},
		{
			"buffer":0,
			"byteLength":1560,
			"byteOffset":526052,
			"target":34962
		},
		{
			"buffer":0,
			"byteLength":1040,
			"byteOffset":527612,
			"target":34962
		},
		{
			"buffer":0,
			"byteLength":1560,
			"byteOffset":528652,
			"target":34962
		},
		{
			"buffer":0,
			"byteLength":744,
			"byteOffset":530212,
			"target":34963
		},
		{
			"buffer":0,
			"byteLength":1560,
			"byteOffset":530956,
			"target":34962
		},
		{
			"buffer":0,
			"byteLength":1040,
			"byteOffset":532516,
			"target":34962
		},
		{
			"buffer":0,
			"byteLength":1560,
			"byteOffset":533556,
			"target":34962
		},
		{
			"buffer":0,
			"byteLength":2232,
			"byteOffset":535116,
			"target":34962
		},
		{
			"buffer":0,
			"byteLength":1488,
			"byteOffset":537348,
			"target":34962
		},
		{
			"buffer":0,
			"byteLength":2232,
			"byteOffset":538836,
			"target":34962
		},
		{
			"buffer":0,
			"byteLength":1632,
			"byteOffset":541068,
			"target":34963
		},
		{
			"buffer":0,
			"byteLength":1560,
			"byteOffset":542700,
			"target":34962
		},
		{
			"buffer":0,
			"byteLength":1040,
			"byteOffset":544260,
			"target":34962
		},
		{
			"buffer":0,
			"byteLength":1560,
			"byteOffset":545300,
			"target":34962
		},
		{
			"buffer":0,
			"byteLength":1560,
			"byteOffset":546860,
			"target":34962
		},
		{
			"buffer":0,
			"byteLength":1040,
			"byteOffset":548420,
			"target":34962
		},
		{
			"buffer":0,
			"byteLength":1560,
			"byteOffset":549460,
			"target":34962
		}
	],
	"samplers":[
		{
			"magFilter":9729,
			"minFilter":9987
		}
	],
	"buffers":[
		{
			"byteLength":551020,
			"uri":"data:application/octet-stream;base64,"
		}
	]
}
