<svg id="mwLogo" xmlns="http://www.w3.org/2000/svg" viewBox="0 0 400 191.9">
	<style>
		.mwLogoWords{font-family:OCRAStd;font-size:29.8776px;}
	</style>
	<path class="dark:fill-current" d="M378.4 88.9h-89.7C287.6 43.6 250.4 7 204.8 7c-25.7 0-48.7 11.6-64.1 29.9-15.3 13-25.9 31.3-28.9 52H31.6c-1.1 0-2 .9-2 2s.9 2 2 2h79.7c-.2 2-.3 4-.4 6H21.6c-1.1 0-2 .9-2 2s.9 2 2 2h89.3c1.1 45.3 38.3 81.9 83.9 81.9 25.7 0 48.7-11.6 64.1-29.9 15.3-13 25.9-31.3 28.9-52h80.6c1.1 0 2-.9 2-2s-.9-2-2-2h-80.1c.2-2 .3-4 .4-6h89.7c1.1 0 2-.9 2-2s-.9-2-2-2zm-122.3 63.3c-13.9 11.6-31.8 18.7-51.2 18.7-44.1 0-79.9-35.8-79.9-79.9 0-19.5 7-37.4 18.7-51.2C157.4 28 175.3 21 194.8 21c44.1 0 79.9 35.8 79.9 79.9 0 19.5-7 37.4-18.6 51.3z"/><g id="XMLID_2_"><path fill="#42bee0" d="M284.7 90.9c0 2.7-.1 5.4-.4 8h-5.7c-1-45.3-38.2-81.9-83.8-81.9-12.1 0-23.5 2.6-33.9 7.2 12.6-8.3 27.7-13.2 43.9-13.2 44.1 0 79.9 35.9 79.9 79.9zM278.7 102.9h5.1c-1.8 11.6-6 22.4-12.3 31.9 4.4-9.8 6.9-20.6 7.2-31.9z"/></g><g id="XMLID_1_"><path fill="#ffe500" d="M204.8 174.8c12.1 0 23.5-2.6 33.9-7.2-12.6 8.3-27.7 13.2-43.9 13.2-44.1 0-79.9-35.9-79.9-79.9 0-2.7.1-5.4.4-8h5.7c1 45.4 38.2 81.9 83.8 81.9zM128.1 57.1c-4.3 9.8-6.8 20.6-7.1 31.9h-5.1c1.7-11.7 5.9-22.5 12.2-31.9z"/></g>
	<text transform="translate(156.977 87.713)"><tspan x="0" y="0" class="mwLogoWords dark:fill-current">MEGA</tspan><tspan x="-10.8" y="35.9" class="mwLogoWords dark:fill-current">WORLD</tspan></text>
</svg>